<?xml version="1.0" standalone="no"?>
<!DOCTYPE svg PUBLIC "-//W3C//DTD SVG 20010904//EN"
 "http://www.w3.org/TR/2001/REC-SVG-20010904/DTD/svg10.dtd">
<svg version="1.0" xmlns="http://www.w3.org/2000/svg"
 width="500.000000pt" height="500.000000pt" viewBox="0 0 500.000000 500.000000"
 preserveAspectRatio="xMidYMid meet">

<g transform="translate(0.000000,500.000000) scale(0.100000,-0.100000)"
fill="#000000" stroke="none">
<path d="M2568 4413 c3 -18 -1 -30 -13 -40 -16 -11 -17 -13 -2 -13 13 0 17
-13 19 -77 l3 -78 29 0 c16 0 31 6 34 13 3 11 0 12 -16 3 -10 -6 -22 -7 -26
-4 -3 3 -6 37 -6 75 0 67 0 68 28 69 l27 1 -25 7 c-19 5 -26 14 -28 39 -2 18
-9 32 -16 32 -9 0 -12 -9 -8 -27z"/>
<path d="M2690 4415 c0 -8 7 -15 15 -15 8 0 15 7 15 15 0 8 -7 15 -15 15 -8 0
-15 -7 -15 -15z"/>
<path d="M3090 4283 c-19 -58 -40 -116 -46 -129 -10 -19 -10 -23 4 -26 13 -2
22 12 38 56 23 68 39 80 48 39 21 -88 38 -134 54 -142 18 -9 18 -8 1 42 -9 29
-20 67 -24 85 -6 29 -4 32 17 32 31 0 45 10 56 40 18 48 -10 79 -93 103 -18 5
-24 -6 -55 -100z m125 47 c11 -18 -4 -59 -25 -70 -24 -13 -70 -3 -70 16 0 7 7
32 16 54 16 39 16 39 44 25 16 -8 32 -20 35 -25z"/>
<path d="M2348 4362 c-13 -3 -15 -9 -7 -35 5 -18 9 -56 9 -84 0 -45 3 -53 18
-53 17 0 18 5 9 67 -9 63 -8 68 13 85 27 22 44 23 64 3 16 -16 32 -117 21
-134 -3 -7 2 -11 15 -11 18 0 20 4 15 43 -13 95 -17 107 -35 117 -25 13 -77
13 -86 -1 -4 -6 -9 -7 -13 -2 -3 5 -13 7 -23 5z"/>
<path d="M2690 4326 c0 -24 -3 -64 -6 -90 -6 -38 -4 -46 10 -46 12 0 16 9 16
38 0 20 3 61 6 90 6 44 4 52 -10 52 -12 0 -16 -10 -16 -44z"/>
<path d="M2796 4324 c-30 -30 -35 -77 -11 -110 30 -43 114 -56 128 -20 5 11 0
11 -23 -2 -27 -16 -30 -16 -57 4 -32 25 -43 58 -30 97 16 49 66 61 104 25 18
-16 23 -18 23 -6 0 8 -11 20 -25 26 -42 19 -80 14 -109 -14z"/>
<path d="M2162 4324 c-12 -8 -22 -23 -22 -32 1 -16 1 -16 11 0 18 32 48 41 75
23 32 -21 30 -28 -11 -48 -74 -35 -82 -107 -11 -107 19 0 39 6 45 14 7 8 22
11 39 8 22 -4 25 -3 16 9 -6 8 -16 40 -23 72 -13 60 -29 77 -73 77 -13 0 -34
-7 -46 -16z m100 -85 c6 -39 -33 -75 -63 -58 -31 16 -24 42 21 72 33 23 37 22
42 -14z"/>
<path d="M1986 4274 c-9 -8 -16 -19 -16 -24 0 -4 -17 -6 -38 -3 -27 4 -42 1
-51 -10 -7 -9 -18 -14 -26 -11 -21 8 -26 -12 -10 -42 8 -15 20 -50 26 -76 12
-44 26 -58 42 -41 4 3 3 11 -2 17 -16 21 -42 113 -35 129 3 9 15 19 26 23 28
9 53 -19 75 -88 13 -38 23 -54 31 -49 9 5 7 22 -8 66 -11 32 -20 67 -20 77 0
25 44 45 64 29 16 -13 57 -126 49 -135 -3 -2 4 -2 16 1 12 3 21 6 21 7 0 10
-50 119 -59 130 -17 21 -65 21 -85 0z"/>
<path d="M3275 4165 c-48 -47 -27 -123 39 -145 88 -29 156 81 91 145 -34 35
-96 35 -130 0z m116 -6 c41 -41 3 -129 -55 -129 -60 0 -82 76 -36 125 29 31
63 32 91 4z"/>
<path d="M1695 4148 c-52 -28 -63 -101 -20 -143 42 -43 121 -24 144 34 32 77
-51 150 -124 109z m103 -55 c15 -31 15 -37 1 -61 -36 -65 -134 -22 -127 55 6
73 92 76 126 6z"/>
<path d="M1462 4109 c-30 -11 -99 -59 -86 -59 13 0 145 -176 152 -202 3 -14 8
-15 22 -6 16 10 14 16 -26 67 -24 30 -40 59 -36 63 4 3 41 -5 83 -20 47 -16
82 -23 94 -18 15 5 3 13 -55 32 -41 14 -77 27 -79 29 -2 3 2 18 9 35 21 52
-25 99 -78 79z m36 -25 c30 -21 30 -68 0 -89 -22 -15 -24 -14 -46 12 -43 53
-45 61 -15 77 35 19 34 19 61 0z"/>
<path d="M3483 4093 c-21 -8 -15 -52 12 -87 29 -38 32 -61 9 -70 -23 -9 -54
12 -69 47 -12 28 -14 29 -15 9 0 -51 84 -94 118 -60 18 18 15 30 -19 81 -17
26 -28 51 -24 57 11 18 43 10 64 -17 12 -14 25 -23 29 -19 4 4 -8 21 -26 37
-31 28 -52 34 -79 22z"/>
<path d="M3618 3974 c-53 -28 -64 -93 -24 -137 29 -31 72 -45 89 -28 9 9 8 11
-5 6 -20 -8 -73 18 -82 40 -8 23 -7 47 3 64 7 11 20 6 61 -27 29 -23 56 -42
60 -42 5 0 13 14 19 31 14 41 -7 83 -50 98 -39 13 -38 14 -71 -5z m92 -24 c23
-23 24 -33 10 -61 -10 -19 -13 -18 -56 18 -42 34 -44 38 -28 50 25 19 51 16
74 -7z"/>
<path d="M2465 3891 c-55 -26 -93 -65 -116 -118 l-19 -44 -96 3 c-90 3 -97 2
-115 -21 -45 -55 -37 -113 31 -213 54 -81 49 -95 -21 -59 -22 12 -45 19 -50
16 -19 -13 -9 -81 19 -126 54 -84 142 -140 223 -141 39 0 60 -7 105 -36 l55
-37 -33 -14 c-32 -13 -38 -12 -100 14 -11 4 -18 3 -18 -4 0 -14 91 -58 135
-67 17 -3 49 1 72 9 l41 14 7 -61 c4 -34 30 -149 57 -256 72 -285 69 -392 -17
-605 -44 -107 -234 -507 -250 -523 -10 -11 -15 5 -24 85 -20 160 -40 236 -87
334 -24 50 -43 93 -42 94 2 2 26 -1 53 -5 99 -16 178 10 238 80 35 41 54 86
42 99 -4 3 -11 -2 -16 -12 -11 -19 -79 -57 -103 -57 -11 0 -7 17 19 73 19 40
42 102 51 138 10 35 27 75 39 89 42 48 55 75 55 112 0 51 -28 78 -80 78 -32 0
-48 7 -80 36 -34 31 -44 35 -72 30 -93 -20 -103 -19 -153 13 -27 17 -62 31
-77 31 -33 0 -83 -23 -95 -44 -18 -32 -96 -86 -123 -86 -19 0 -37 -10 -55 -32
-24 -29 -27 -38 -21 -83 5 -48 3 -54 -23 -79 -27 -26 -29 -35 -29 -91 0 -55 4
-68 30 -99 35 -43 91 -83 177 -126 70 -36 70 -47 -3 -75 -48 -19 -101 -23
-133 -12 -39 14 -26 -11 16 -33 86 -43 177 -38 266 15 l56 34 49 -102 c27 -56
52 -122 56 -147 l7 -45 -59 55 c-59 54 -160 117 -171 107 -3 -3 7 -21 21 -40
14 -18 43 -72 65 -119 44 -96 90 -155 136 -174 26 -10 32 -21 47 -79 25 -94
115 -306 226 -530 101 -203 99 -201 107 -193 3 3 -36 89 -86 192 l-92 187 25
27 c74 79 82 197 27 385 -11 37 -23 67 -27 67 -11 0 -100 -150 -115 -194 l-14
-40 -11 34 c-7 18 -12 39 -12 47 0 7 37 88 81 181 45 92 94 195 110 230 28 61
29 62 51 48 23 -14 51 -19 95 -17 30 1 97 63 129 117 25 43 77 215 67 224 -3
3 -13 -6 -21 -20 -34 -51 -129 -144 -191 -186 -36 -24 -66 -42 -67 -41 -1 1
14 49 33 107 20 58 38 133 41 167 l5 62 65 43 c122 79 219 193 262 307 12 31
24 100 31 177 10 119 8 160 -7 118 -34 -98 -67 -144 -169 -239 -118 -109 -139
-135 -170 -210 l-21 -52 -47 186 c-26 102 -50 215 -54 251 l-6 65 31 -27 c69
-57 145 -57 194 0 13 15 38 34 56 41 48 20 114 90 184 194 34 50 81 110 106
134 53 52 49 67 -7 30 -31 -20 -47 -25 -71 -20 -24 4 -29 10 -24 22 42 104 15
181 -76 210 -27 8 -40 21 -55 54 -18 39 -23 42 -62 45 -23 2 -51 -2 -63 -8
-15 -8 -25 -7 -42 4 -13 8 -43 20 -66 27 -27 8 -58 28 -80 52 -38 39 -81 67
-104 67 -7 0 -31 -9 -53 -19z m78 -12 c12 -7 43 -31 69 -55 26 -24 52 -44 58
-44 6 0 33 -9 60 -21 l49 -21 -24 -36 c-14 -20 -25 -43 -25 -52 0 -8 -8 1 -19
20 -23 44 -61 51 -102 21 l-29 -22 0 26 c0 34 -24 80 -52 99 -35 25 -80 20
-126 -14 -46 -33 -49 -32 -28 8 17 33 50 64 91 85 36 20 50 20 78 6z m-28 -95
c23 -9 45 -57 45 -99 0 -19 -2 -35 -5 -35 -25 0 -165 -35 -187 -46 -36 -19
-58 -63 -58 -118 0 -42 -2 -45 -35 -56 -44 -15 -48 -11 -111 80 -56 82 -68
141 -36 180 19 24 26 25 120 25 l99 0 48 38 c47 36 82 45 120 31z m374 -33
c10 -6 26 -28 36 -51 12 -28 26 -42 44 -47 75 -18 110 -67 96 -136 -11 -50
-31 -74 -79 -95 -24 -11 -78 -50 -120 -86 -71 -62 -76 -65 -76 -41 0 41 24 88
74 144 60 68 72 96 51 127 -19 30 -27 30 -103 -1 -34 -14 -64 -25 -67 -25 -9
0 -5 88 6 117 17 47 75 100 112 102 5 1 16 -3 26 -8z m-192 -91 c7 -14 13 -46
13 -72 0 -55 -6 -57 -95 -34 -107 28 -195 -39 -195 -150 l0 -36 -35 31 c-20
17 -40 31 -45 31 -6 0 -10 25 -10 56 0 74 31 107 116 123 99 19 133 31 161 56
35 31 73 29 90 -5z m209 -104 c7 -19 -10 -50 -62 -112 -47 -55 -74 -109 -74
-149 0 -21 -5 -25 -30 -25 -17 0 -44 -7 -61 -15 -28 -15 -31 -15 -58 8 -21 17
-47 26 -92 31 -35 3 -67 10 -72 15 -5 5 -11 38 -14 73 -5 77 16 123 71 151 37
20 38 20 116 -2 l79 -21 63 21 c35 11 70 25 78 30 23 13 50 11 56 -5z m-708
-158 c22 0 55 5 74 11 45 15 73 4 127 -47 65 -62 53 -70 -45 -31 -66 26 -87
-24 -34 -84 17 -19 30 -38 30 -42 0 -12 -79 4 -118 24 -70 36 -142 127 -142
178 l0 32 34 -20 c19 -11 53 -20 74 -21z m872 2 c-49 -37 -176 -110 -210 -120
l-33 -10 29 31 c41 43 119 99 152 109 15 5 41 9 57 9 l30 1 -25 -20z m34 -12
c-32 -52 -132 -189 -157 -215 -36 -38 -95 -68 -154 -78 -38 -6 -48 -3 -85 24
-23 17 -54 31 -70 31 -33 0 -35 9 -7 44 31 40 66 53 155 59 88 5 122 19 249
101 78 50 79 51 69 34z m-614 -109 c85 -10 124 -21 134 -38 3 -5 -4 -29 -16
-54 -21 -40 -27 -45 -63 -49 -54 -6 -123 29 -187 94 -44 45 -58 75 -42 90 3 4
25 -2 49 -13 24 -11 80 -24 125 -30z m212 -179 c20 -17 51 -33 68 -37 l32 -6
-23 -13 c-13 -7 -35 -13 -49 -14 -27 0 -88 32 -107 58 -39 49 23 58 79 12z
m-129 5 c1 -5 -15 -18 -36 -29 -28 -13 -48 -16 -75 -11 l-37 8 30 10 c17 5 39
16 50 24 22 15 64 14 68 -2z m467 -250 c-15 -73 -60 -159 -115 -222 -42 -48
-170 -153 -187 -153 -25 0 29 113 83 174 23 26 38 50 34 54 -10 10 -81 -75
-110 -132 -31 -62 -34 -30 -4 46 29 74 77 135 163 207 41 35 90 84 108 111
l33 48 3 -39 c2 -22 -2 -64 -8 -94z m-834 -62 c21 -14 59 -30 83 -35 24 -4 50
-13 57 -19 20 -16 27 -70 14 -103 l-11 -30 -19 32 c-27 43 -62 59 -101 45 -27
-10 -29 -10 -29 12 0 27 -36 75 -56 75 -8 0 -42 -14 -74 -31 -33 -17 -65 -29
-71 -27 -6 2 14 27 45 56 65 62 100 68 162 25z m234 -48 c28 -29 41 -35 75
-35 23 0 46 -5 53 -12 19 -19 14 -82 -8 -111 l-21 -26 -20 20 c-25 25 -47 19
-111 -27 l-46 -34 -7 28 c-4 20 1 42 16 71 24 47 21 95 -11 128 -22 24 -17 33
20 33 17 0 38 -12 60 -35z m-276 -11 c9 -8 16 -32 16 -53 0 -31 -5 -40 -25
-49 -35 -16 -71 -15 -134 4 -30 8 -63 13 -76 10 -24 -6 -45 -44 -45 -84 l0
-27 -20 25 c-26 33 -26 84 0 110 15 15 33 20 79 20 46 0 70 6 112 29 64 35 73
36 93 15z m135 -85 c20 -21 41 -89 41 -132 0 -13 -12 -34 -26 -48 -43 -40 -74
-112 -75 -176 -2 -62 -9 -73 -50 -73 -33 0 -110 67 -175 153 -87 116 -114 196
-80 242 14 19 15 19 85 1 87 -23 128 -17 183 23 49 36 70 39 97 10z m204 -118
c-2 -52 -25 -123 -70 -218 -28 -61 -38 -73 -58 -73 -14 0 -43 -7 -65 -16 -23
-9 -44 -14 -47 -10 -4 4 -7 34 -7 69 1 96 44 168 153 248 80 59 97 59 94 0z
m-542 -111 c32 -47 83 -111 113 -142 44 -46 52 -59 41 -68 -18 -15 -41 0 -80
51 -40 52 -142 136 -174 144 -58 15 -69 60 -23 104 25 24 29 25 46 11 10 -8
45 -53 77 -100z m-48 -67 c38 -27 159 -154 152 -161 -2 -2 -36 13 -76 34 -126
66 -237 189 -147 164 17 -5 49 -22 71 -37z m955 -125 c-21 -94 -96 -189 -159
-203 -30 -7 -104 19 -95 34 3 5 43 34 89 64 45 31 102 76 127 101 24 25 45 46
46 46 1 0 -2 -19 -8 -42z m-357 4 c-13 -25 -80 -70 -121 -82 -36 -10 -137 -3
-146 11 -10 17 94 59 148 60 43 0 79 8 126 28 1 0 -2 -7 -7 -17z m-261 -30 c0
-4 -10 -13 -21 -21 -18 -11 -23 -11 -30 1 -5 8 -2 15 9 20 24 9 42 9 42 0z
m-71 -24 c12 -30 -9 -54 -74 -84 -52 -25 -131 -31 -170 -14 -19 8 -19 9 3 9
34 1 94 29 124 58 56 54 104 66 117 31z m78 -313 c35 -34 63 -69 63 -80 0 -16
-7 -12 -38 18 -58 57 -60 44 -3 -22 75 -86 66 -144 -11 -63 -37 39 -46 53
-103 170 l-36 74 33 -19 c18 -10 61 -45 95 -78z m299 -270 c34 -131 21 -245
-34 -307 -21 -25 -28 -23 -41 13 -17 50 -13 83 19 144 17 31 30 62 30 69 -1
19 -39 -36 -56 -81 -9 -24 -20 -43 -24 -43 -4 0 -13 14 -21 31 -10 25 -10 41
0 78 14 54 91 186 101 174 4 -4 16 -39 26 -78z"/>
<path d="M1355 3861 c-3 -5 -1 -12 5 -16 5 -3 10 1 10 9 0 18 -6 21 -15 7z"/>
<path d="M1300 3810 c0 -5 5 -10 10 -10 6 0 10 5 10 10 0 6 -4 10 -10 10 -5 0
-10 -4 -10 -10z"/>
<path d="M3810 3780 c0 -5 5 -10 11 -10 5 0 7 5 4 10 -3 6 -8 10 -11 10 -2 0
-4 -4 -4 -10z"/>
<path d="M1245 3761 c-3 -5 -1 -12 5 -16 5 -3 10 1 10 9 0 18 -6 21 -15 7z"/>
<path d="M3860 3720 c0 -5 5 -10 10 -10 6 0 10 5 10 10 0 6 -4 10 -10 10 -5 0
-10 -4 -10 -10z"/>
<path d="M1190 3700 c0 -5 5 -10 10 -10 6 0 10 5 10 10 0 6 -4 10 -10 10 -5 0
-10 -4 -10 -10z"/>
<path d="M3910 3670 c0 -5 5 -10 10 -10 6 0 10 5 10 10 0 6 -4 10 -10 10 -5 0
-10 -4 -10 -10z"/>
<path d="M1145 3650 c-3 -5 -1 -10 4 -10 6 0 11 5 11 10 0 6 -2 10 -4 10 -3 0
-8 -4 -11 -10z"/>
<path d="M3960 3610 c0 -5 5 -10 10 -10 6 0 10 5 10 10 0 6 -4 10 -10 10 -5 0
-10 -4 -10 -10z"/>
<path d="M1095 3590 c-3 -5 1 -10 10 -10 9 0 13 5 10 10 -3 6 -8 10 -10 10 -2
0 -7 -4 -10 -10z"/>
<path d="M4005 3550 c4 -6 11 -8 16 -5 14 9 11 15 -7 15 -8 0 -12 -5 -9 -10z"/>
<path d="M1050 3530 c0 -5 5 -10 10 -10 6 0 10 5 10 10 0 6 -4 10 -10 10 -5 0
-10 -4 -10 -10z"/>
<path d="M4050 3490 c0 -5 5 -10 10 -10 6 0 10 5 10 10 0 6 -4 10 -10 10 -5 0
-10 -4 -10 -10z"/>
<path d="M1010 3464 c0 -8 5 -12 10 -9 6 4 8 11 5 16 -9 14 -15 11 -15 -7z"/>
<path d="M4090 3430 c0 -5 5 -10 10 -10 6 0 10 5 10 10 0 6 -4 10 -10 10 -5 0
-10 -4 -10 -10z"/>
<path d="M970 3400 c0 -5 5 -10 10 -10 6 0 10 5 10 10 0 6 -4 10 -10 10 -5 0
-10 -4 -10 -10z"/>
<path d="M4130 3359 c0 -5 5 -7 10 -4 6 3 10 8 10 11 0 2 -4 4 -10 4 -5 0 -10
-5 -10 -11z"/>
<path d="M930 3340 c0 -5 5 -10 10 -10 6 0 10 5 10 10 0 6 -4 10 -10 10 -5 0
-10 -4 -10 -10z"/>
<path d="M4160 3300 c0 -5 5 -10 10 -10 6 0 10 5 10 10 0 6 -4 10 -10 10 -5 0
-10 -4 -10 -10z"/>
<path d="M895 3270 c4 -6 11 -8 16 -5 14 9 11 15 -7 15 -8 0 -12 -5 -9 -10z"/>
<path d="M4195 3230 c3 -5 8 -10 11 -10 2 0 4 5 4 10 0 6 -5 10 -11 10 -5 0
-7 -4 -4 -10z"/>
<path d="M865 3200 c3 -5 8 -10 11 -10 2 0 4 5 4 10 0 6 -5 10 -11 10 -5 0 -7
-4 -4 -10z"/>
<path d="M4225 3160 c3 -5 8 -10 11 -10 2 0 4 5 4 10 0 6 -5 10 -11 10 -5 0
-7 -4 -4 -10z"/>
<path d="M836 3141 c-4 -5 -2 -12 3 -15 5 -4 12 -2 15 3 4 5 2 12 -3 15 -5 4
-12 2 -15 -3z"/>
<path d="M4250 3090 c0 -5 5 -10 10 -10 6 0 10 5 10 10 0 6 -4 10 -10 10 -5 0
-10 -4 -10 -10z"/>
<path d="M810 3064 c0 -8 5 -12 10 -9 6 4 8 11 5 16 -9 14 -15 11 -15 -7z"/>
<path d="M4280 3020 c0 -5 5 -10 10 -10 6 0 10 5 10 10 0 6 -4 10 -10 10 -5 0
-10 -4 -10 -10z"/>
<path d="M785 2990 c4 -6 11 -8 16 -5 14 9 11 15 -7 15 -8 0 -12 -5 -9 -10z"/>
<path d="M4300 2950 c0 -5 5 -10 10 -10 6 0 10 5 10 10 0 6 -4 10 -10 10 -5 0
-10 -4 -10 -10z"/>
<path d="M770 2920 c0 -5 5 -10 11 -10 5 0 7 5 4 10 -3 6 -8 10 -11 10 -2 0
-4 -4 -4 -10z"/>
<path d="M4315 2880 c-3 -5 -1 -10 4 -10 6 0 11 5 11 10 0 6 -2 10 -4 10 -3 0
-8 -4 -11 -10z"/>
<path d="M750 2850 c0 -5 5 -10 10 -10 6 0 10 5 10 10 0 6 -4 10 -10 10 -5 0
-10 -4 -10 -10z"/>
<path d="M4330 2800 c0 -5 5 -10 10 -10 6 0 10 5 10 10 0 6 -4 10 -10 10 -5 0
-10 -4 -10 -10z"/>
<path d="M736 2781 c-4 -5 -2 -12 3 -15 5 -4 12 -2 15 3 4 5 2 12 -3 15 -5 4
-12 2 -15 -3z"/>
<path d="M4345 2730 c-3 -5 -1 -10 4 -10 6 0 11 5 11 10 0 6 -2 10 -4 10 -3 0
-8 -4 -11 -10z"/>
<path d="M720 2700 c0 -5 5 -10 10 -10 6 0 10 5 10 10 0 6 -4 10 -10 10 -5 0
-10 -4 -10 -10z"/>
<path d="M4355 2661 c-3 -5 -1 -12 5 -16 5 -3 10 1 10 9 0 18 -6 21 -15 7z"/>
<path d="M715 2630 c-3 -5 1 -10 10 -10 9 0 13 5 10 10 -3 6 -8 10 -10 10 -2
0 -7 -4 -10 -10z"/>
<path d="M4360 2580 c0 -5 5 -10 10 -10 6 0 10 5 10 10 0 6 -4 10 -10 10 -5 0
-10 -4 -10 -10z"/>
<path d="M710 2550 c0 -5 5 -10 10 -10 6 0 10 5 10 10 0 6 -4 10 -10 10 -5 0
-10 -4 -10 -10z"/>
<path d="M4365 2511 c-3 -5 -1 -12 5 -16 5 -3 10 1 10 9 0 18 -6 21 -15 7z"/>
<path d="M710 2480 c0 -5 5 -10 10 -10 6 0 10 5 10 10 0 6 -4 10 -10 10 -5 0
-10 -4 -10 -10z"/>
<path d="M4360 2430 c0 -5 5 -10 10 -10 6 0 10 5 10 10 0 6 -4 10 -10 10 -5 0
-10 -4 -10 -10z"/>
<path d="M710 2400 c0 -5 5 -10 10 -10 6 0 10 5 10 10 0 6 -4 10 -10 10 -5 0
-10 -4 -10 -10z"/>
<path d="M4360 2354 c0 -8 5 -12 10 -9 6 4 8 11 5 16 -9 14 -15 11 -15 -7z"/>
<path d="M715 2330 c-3 -5 1 -10 10 -10 9 0 13 5 10 10 -3 6 -8 10 -10 10 -2
0 -7 -4 -10 -10z"/>
<path d="M4350 2280 c0 -5 5 -10 10 -10 6 0 10 5 10 10 0 6 -4 10 -10 10 -5 0
-10 -4 -10 -10z"/>
<path d="M720 2250 c0 -5 5 -10 10 -10 6 0 10 5 10 10 0 6 -4 10 -10 10 -5 0
-10 -4 -10 -10z"/>
<path d="M4345 2210 c-3 -5 -1 -10 4 -10 6 0 11 5 11 10 0 6 -2 10 -4 10 -3 0
-8 -4 -11 -10z"/>
<path d="M730 2180 c0 -5 5 -10 10 -10 6 0 10 5 10 10 0 6 -4 10 -10 10 -5 0
-10 -4 -10 -10z"/>
<path d="M4330 2130 c0 -5 5 -10 10 -10 6 0 10 5 10 10 0 6 -4 10 -10 10 -5 0
-10 -4 -10 -10z"/>
<path d="M746 2111 c-4 -5 -2 -12 3 -15 5 -4 12 -2 15 3 4 5 2 12 -3 15 -5 4
-12 2 -15 -3z"/>
<path d="M4310 2060 c0 -5 5 -10 10 -10 6 0 10 5 10 10 0 6 -4 10 -10 10 -5 0
-10 -4 -10 -10z"/>
<path d="M760 2030 c0 -5 5 -10 10 -10 6 0 10 5 10 10 0 6 -4 10 -10 10 -5 0
-10 -4 -10 -10z"/>
<path d="M4295 1990 c-3 -5 1 -10 10 -10 9 0 13 5 10 10 -3 6 -8 10 -10 10 -2
0 -7 -4 -10 -10z"/>
<path d="M780 1960 c0 -5 5 -10 10 -10 6 0 10 5 10 10 0 6 -4 10 -10 10 -5 0
-10 -4 -10 -10z"/>
<path d="M4275 1921 c-3 -5 -1 -12 5 -16 5 -3 10 1 10 9 0 18 -6 21 -15 7z"/>
<path d="M805 1890 c-3 -5 1 -10 10 -10 9 0 13 5 10 10 -3 6 -8 10 -10 10 -2
0 -7 -4 -10 -10z"/>
<path d="M4250 1844 c0 -8 5 -12 10 -9 6 3 10 10 10 16 0 5 -4 9 -10 9 -5 0
-10 -7 -10 -16z"/>
<path d="M830 1820 c0 -5 5 -10 10 -10 6 0 10 5 10 10 0 6 -4 10 -10 10 -5 0
-10 -4 -10 -10z"/>
<path d="M4225 1781 c-3 -5 -1 -12 5 -16 5 -3 10 1 10 9 0 18 -6 21 -15 7z"/>
<path d="M860 1750 c0 -5 5 -10 10 -10 6 0 10 5 10 10 0 6 -4 10 -10 10 -5 0
-10 -4 -10 -10z"/>
<path d="M4195 1710 c-3 -5 -1 -10 4 -10 6 0 11 5 11 10 0 6 -2 10 -4 10 -3 0
-8 -4 -11 -10z"/>
<path d="M890 1680 c0 -5 5 -10 10 -10 6 0 10 5 10 10 0 6 -4 10 -10 10 -5 0
-10 -4 -10 -10z"/>
<path d="M4160 1640 c0 -5 5 -10 10 -10 6 0 10 5 10 10 0 6 -4 10 -10 10 -5 0
-10 -4 -10 -10z"/>
<path d="M925 1610 c3 -5 8 -10 11 -10 2 0 4 5 4 10 0 6 -5 10 -11 10 -5 0 -7
-4 -4 -10z"/>
<path d="M4125 1570 c3 -5 8 -10 11 -10 2 0 4 5 4 10 0 6 -5 10 -11 10 -5 0
-7 -4 -4 -10z"/>
<path d="M960 1550 c0 -5 5 -10 10 -10 6 0 10 5 10 10 0 6 -4 10 -10 10 -5 0
-10 -4 -10 -10z"/>
<path d="M4085 1510 c-3 -5 -1 -10 4 -10 6 0 11 5 11 10 0 6 -2 10 -4 10 -3 0
-8 -4 -11 -10z"/>
<path d="M1000 1480 c0 -5 5 -10 10 -10 6 0 10 5 10 10 0 6 -4 10 -10 10 -5 0
-10 -4 -10 -10z"/>
<path d="M4045 1450 c-3 -5 -1 -10 4 -10 6 0 11 5 11 10 0 6 -2 10 -4 10 -3 0
-8 -4 -11 -10z"/>
<path d="M1040 1420 c0 -5 5 -10 10 -10 6 0 10 5 10 10 0 6 -4 10 -10 10 -5 0
-10 -4 -10 -10z"/>
<path d="M4000 1385 c0 -8 5 -15 10 -15 6 0 10 7 10 15 0 8 -4 15 -10 15 -5 0
-10 -7 -10 -15z"/>
<path d="M1090 1360 c0 -5 5 -10 10 -10 6 0 10 5 10 10 0 6 -4 10 -10 10 -5 0
-10 -4 -10 -10z"/>
<path d="M1138 1303 c7 -3 16 -2 19 1 4 3 -2 6 -13 5 -11 0 -14 -3 -6 -6z"/>
<path d="M1797 912 c-25 -28 -21 -46 23 -97 41 -47 43 -69 9 -80 -24 -8 -69
20 -76 46 -7 26 -25 24 -21 -2 7 -52 106 -83 134 -44 21 29 17 42 -27 90 -45
49 -48 78 -9 84 18 2 32 -6 52 -30 25 -30 28 -31 28 -12 0 26 -44 63 -75 63
-12 0 -29 -8 -38 -18z"/>
<path d="M3273 828 c-52 -25 -38 -66 25 -70 34 -2 47 -7 47 -18 0 -10 -12 -16
-38 -18 -42 -4 -41 -22 2 -22 35 0 65 31 56 59 -5 17 -15 21 -50 21 -24 0 -46
4 -49 9 -8 13 21 34 39 28 8 -4 17 -2 20 2 4 7 -20 24 -28 20 -1 0 -12 -5 -24
-11z"/>
<path d="M1896 707 c-39 -100 -41 -107 -28 -107 5 0 16 18 25 41 l16 40 29
-21 c27 -20 33 -21 58 -9 63 31 53 121 -14 127 -18 2 -32 7 -32 13 0 5 -4 9
-9 9 -5 0 -25 -42 -45 -93z m102 47 c44 -30 20 -89 -34 -82 -38 4 -49 39 -23
72 24 30 27 31 57 10z"/>
<path d="M3010 780 c0 -8 -10 -9 -28 -5 -29 6 -63 -17 -48 -32 4 -4 11 -2 15
5 5 8 17 11 33 7 27 -7 58 17 38 30 -5 3 -10 1 -10 -5z"/>
<path d="M3190 780 c0 -5 -15 -10 -34 -10 -18 0 -38 -6 -44 -13 -57 -68 37
-160 98 -95 11 12 20 16 20 9 0 -7 4 -10 9 -6 10 6 -29 125 -41 125 -5 0 -8
-4 -8 -10z m8 -43 c15 -12 16 -49 0 -65 -13 -13 -47 -16 -64 -4 -23 15 -26 50
-5 71 20 20 41 20 69 -2z"/>
<path d="M2450 731 c0 -64 -6 -72 -41 -54 -27 13 -32 13 -54 -1 -32 -21 -42
-62 -24 -95 12 -21 22 -26 54 -26 22 0 43 -4 47 -10 12 -16 16 -2 27 85 14
105 14 140 1 140 -5 0 -10 -18 -10 -39z m-30 -81 c23 -23 24 -33 10 -61 -20
-37 -90 -19 -90 23 0 19 33 58 50 58 6 0 19 -9 30 -20z"/>
<path d="M2874 738 c20 -118 20 -135 -8 -153 -32 -21 -74 -13 -85 18 -5 12
-12 50 -16 85 -4 34 -12 62 -17 62 -7 0 -8 -21 -4 -57 14 -116 31 -139 101
-135 47 3 68 36 61 97 -12 88 -18 115 -28 115 -6 0 -8 -14 -4 -32z"/>
<path d="M2094 722 c-21 -13 -34 -52 -28 -77 7 -29 31 -45 66 -45 13 0 29 -5
35 -11 9 -9 16 2 27 42 20 66 20 83 2 76 -8 -3 -20 1 -26 9 -13 15 -57 19 -76
6z m74 -24 c34 -34 -14 -102 -56 -79 -28 15 -35 40 -17 67 17 26 53 32 73 12z"/>
<path d="M2978 717 c-7 -8 -19 -12 -27 -9 -14 5 -14 0 10 -90 5 -21 14 -38 20
-38 6 0 8 8 5 18 -21 72 -13 112 23 112 18 0 30 -21 46 -77 9 -33 27 -28 19 5
-16 65 -32 92 -58 92 -13 0 -31 -6 -38 -13z"/>
<path d="M2517 652 c-22 -25 -21 -75 1 -95 19 -17 57 -22 86 -11 29 11 16 23
-19 17 -34 -5 -65 8 -65 28 0 5 27 9 60 9 33 0 60 3 60 6 0 11 -23 49 -34 56
-21 14 -73 8 -89 -10z m91 -26 c3 -13 -5 -16 -42 -16 -50 0 -58 11 -25 34 25
17 62 7 67 -18z"/>
</g>
</svg>
